<svg id="visual" viewBox="0 0 1920 1080" width="100%" height="100%" xmlns="http://www.w3.org/2000/svg" xmlns:xlink="http://www.w3.org/1999/xlink" version="1.1"><rect x="0" y="0" width="1920" height="1080" fill="#ffffff"></rect><path d="M0 807L192 651L384 800L576 729L768 848L960 811L1152 674L1344 800L1536 680L1728 750L1920 740L1920 1081L1728 1081L1536 1081L1344 1081L1152 1081L960 1081L768 1081L576 1081L384 1081L192 1081L0 1081Z" fill="#cdf9ff"></path><path d="M0 714L192 755L384 722L576 888L768 660L960 690L1152 722L1344 624L1536 816L1728 639L1920 702L1920 1081L1728 1081L1536 1081L1344 1081L1152 1081L960 1081L768 1081L576 1081L384 1081L192 1081L0 1081Z" fill="#b4effb"></path><path d="M0 799L192 818L384 822L576 785L768 709L960 734L1152 903L1344 844L1536 749L1728 903L1920 857L1920 1081L1728 1081L1536 1081L1344 1081L1152 1081L960 1081L768 1081L576 1081L384 1081L192 1081L0 1081Z" fill="#9ae4f8"></path><path d="M0 942L192 774L384 929L576 755L768 958L960 929L1152 801L1344 910L1536 818L1728 831L1920 757L1920 1081L1728 1081L1536 1081L1344 1081L1152 1081L960 1081L768 1081L576 1081L384 1081L192 1081L0 1081Z" fill="#7fd9f7"></path><path d="M0 916L192 983L384 842L576 940L768 898L960 892L1152 935L1344 910L1536 948L1728 841L1920 871L1920 1081L1728 1081L1536 1081L1344 1081L1152 1081L960 1081L768 1081L576 1081L384 1081L192 1081L0 1081Z" fill="#63cdf6"></path><path d="M0 891L192 886L384 996L576 995L768 992L960 886L1152 1024L1344 986L1536 997L1728 896L1920 894L1920 1081L1728 1081L1536 1081L1344 1081L1152 1081L960 1081L768 1081L576 1081L384 1081L192 1081L0 1081Z" fill="#42c1f6"></path><path d="M0 1045L192 1052L384 1051L576 1002L768 1052L960 990L1152 1064L1344 991L1536 1014L1728 978L1920 1068L1920 1081L1728 1081L1536 1081L1344 1081L1152 1081L960 1081L768 1081L576 1081L384 1081L192 1081L0 1081Z" fill="#0ab5f5"></path></svg>