<svg id="visual" viewBox="0 0 1920 1080" width="1920" height="1080" xmlns="http://www.w3.org/2000/svg" xmlns:xlink="http://www.w3.org/1999/xlink" version="1.1"><path d="M0 357L15.2 344.5C30.3 332 60.7 307 91.2 308.8C121.7 310.7 152.3 339.3 182.8 350.2C213.3 361 243.7 354 274.2 355.8C304.7 357.7 335.3 368.3 365.8 370C396.3 371.7 426.7 364.3 457.2 369.7C487.7 375 518.3 393 548.8 394.8C579.3 396.7 609.7 382.3 640 369.8C670.3 357.3 700.7 346.7 731.2 352.2C761.7 357.7 792.3 379.3 822.8 391.8C853.3 404.3 883.7 407.7 914.2 400.3C944.7 393 975.3 375 1005.8 373.3C1036.3 371.7 1066.7 386.3 1097.2 382.8C1127.7 379.3 1158.3 357.7 1188.8 352.2C1219.3 346.7 1249.7 357.3 1280 353.7C1310.3 350 1340.7 332 1371.2 326.7C1401.7 321.3 1432.3 328.7 1462.8 343.2C1493.3 357.7 1523.7 379.3 1554.2 382.8C1584.7 386.3 1615.3 371.7 1645.8 359C1676.3 346.3 1706.7 335.7 1737.2 330.3C1767.7 325 1798.3 325 1828.8 328.7C1859.3 332.3 1889.7 339.7 1904.8 343.3L1920 347L1920 0L1904.8 0C1889.7 0 1859.3 0 1828.8 0C1798.3 0 1767.7 0 1737.2 0C1706.7 0 1676.3 0 1645.8 0C1615.3 0 1584.7 0 1554.2 0C1523.7 0 1493.3 0 1462.8 0C1432.3 0 1401.7 0 1371.2 0C1340.7 0 1310.3 0 1280 0C1249.7 0 1219.3 0 1188.8 0C1158.3 0 1127.7 0 1097.2 0C1066.7 0 1036.3 0 1005.8 0C975.3 0 944.7 0 914.2 0C883.7 0 853.3 0 822.8 0C792.3 0 761.7 0 731.2 0C700.7 0 670.3 0 640 0C609.7 0 579.3 0 548.8 0C518.3 0 487.7 0 457.2 0C426.7 0 396.3 0 365.8 0C335.3 0 304.7 0 274.2 0C243.7 0 213.3 0 182.8 0C152.3 0 121.7 0 91.2 0C60.7 0 30.3 0 15.2 0L0 0Z" fill="#0ab5f5"></path><path d="M0 552L15.2 552C30.3 552 60.7 552 91.2 566.3C121.7 580.7 152.3 609.3 182.8 611.2C213.3 613 243.7 588 274.2 584.5C304.7 581 335.3 599 365.8 599C396.3 599 426.7 581 457.2 582.7C487.7 584.3 518.3 605.7 548.8 605.7C579.3 605.7 609.7 584.3 640 575.3C670.3 566.3 700.7 569.7 731.2 587.7C761.7 605.7 792.3 638.3 822.8 651C853.3 663.7 883.7 656.3 914.2 632.8C944.7 609.3 975.3 569.7 1005.8 564.3C1036.3 559 1066.7 588 1097.2 584.5C1127.7 581 1158.3 545 1188.8 539.5C1219.3 534 1249.7 559 1280 564.3C1310.3 569.7 1340.7 555.3 1371.2 548.2C1401.7 541 1432.3 541 1462.8 555.3C1493.3 569.7 1523.7 598.3 1554.2 603.7C1584.7 609 1615.3 591 1645.8 573C1676.3 555 1706.7 537 1737.2 524.5C1767.7 512 1798.3 505 1828.8 514C1859.3 523 1889.7 548 1904.8 560.5L1920 573L1920 345L1904.8 341.3C1889.7 337.7 1859.3 330.3 1828.8 326.7C1798.3 323 1767.7 323 1737.2 328.3C1706.7 333.7 1676.3 344.3 1645.8 357C1615.3 369.7 1584.7 384.3 1554.2 380.8C1523.7 377.3 1493.3 355.7 1462.8 341.2C1432.3 326.7 1401.7 319.3 1371.2 324.7C1340.7 330 1310.3 348 1280 351.7C1249.7 355.3 1219.3 344.7 1188.8 350.2C1158.3 355.7 1127.7 377.3 1097.2 380.8C1066.7 384.3 1036.3 369.7 1005.8 371.3C975.3 373 944.7 391 914.2 398.3C883.7 405.7 853.3 402.3 822.8 389.8C792.3 377.3 761.7 355.7 731.2 350.2C700.7 344.7 670.3 355.3 640 367.8C609.7 380.3 579.3 394.7 548.8 392.8C518.3 391 487.7 373 457.2 367.7C426.7 362.3 396.3 369.7 365.8 368C335.3 366.3 304.7 355.7 274.2 353.8C243.7 352 213.3 359 182.8 348.2C152.3 337.3 121.7 308.7 91.2 306.8C60.7 305 30.3 330 15.2 342.5L0 355Z" fill="#89cdf9"></path><path d="M0 714L15.2 710.3C30.3 706.7 60.7 699.3 91.2 710.2C121.7 721 152.3 750 182.8 762.7C213.3 775.3 243.7 771.7 274.2 777C304.7 782.3 335.3 796.7 365.8 794.8C396.3 793 426.7 775 457.2 773.2C487.7 771.3 518.3 785.7 548.8 782C579.3 778.3 609.7 756.7 640 751.3C670.3 746 700.7 757 731.2 769.7C761.7 782.3 792.3 796.7 822.8 805.7C853.3 814.7 883.7 818.3 914.2 802.2C944.7 786 975.3 750 1005.8 742.8C1036.3 735.7 1066.7 757.3 1097.2 757.3C1127.7 757.3 1158.3 735.7 1188.8 726.7C1219.3 717.7 1249.7 721.3 1280 719.5C1310.3 717.7 1340.7 710.3 1371.2 713.8C1401.7 717.3 1432.3 731.7 1462.8 749.7C1493.3 767.7 1523.7 789.3 1554.2 789.3C1584.7 789.3 1615.3 767.7 1645.8 751.5C1676.3 735.3 1706.7 724.7 1737.2 717.5C1767.7 710.3 1798.3 706.7 1828.8 715.7C1859.3 724.7 1889.7 746.3 1904.8 757.2L1920 768L1920 571L1904.8 558.5C1889.7 546 1859.3 521 1828.8 512C1798.3 503 1767.7 510 1737.2 522.5C1706.7 535 1676.3 553 1645.8 571C1615.3 589 1584.7 607 1554.2 601.7C1523.7 596.3 1493.3 567.7 1462.8 553.3C1432.3 539 1401.7 539 1371.2 546.2C1340.7 553.3 1310.3 567.7 1280 562.3C1249.7 557 1219.3 532 1188.8 537.5C1158.3 543 1127.7 579 1097.2 582.5C1066.7 586 1036.3 557 1005.8 562.3C975.3 567.7 944.7 607.3 914.2 630.8C883.7 654.3 853.3 661.7 822.8 649C792.3 636.3 761.7 603.7 731.2 585.7C700.7 567.7 670.3 564.3 640 573.3C609.7 582.3 579.3 603.7 548.8 603.7C518.3 603.7 487.7 582.3 457.2 580.7C426.7 579 396.3 597 365.8 597C335.3 597 304.7 579 274.2 582.5C243.7 586 213.3 611 182.8 609.2C152.3 607.3 121.7 578.7 91.2 564.3C60.7 550 30.3 550 15.2 550L0 550Z" fill="#c8e6fc"></path><path d="M0 1081L15.2 1081C30.3 1081 60.7 1081 91.2 1081C121.7 1081 152.3 1081 182.8 1081C213.3 1081 243.7 1081 274.2 1081C304.7 1081 335.3 1081 365.8 1081C396.3 1081 426.7 1081 457.2 1081C487.7 1081 518.3 1081 548.8 1081C579.3 1081 609.7 1081 640 1081C670.3 1081 700.7 1081 731.2 1081C761.7 1081 792.3 1081 822.8 1081C853.3 1081 883.7 1081 914.2 1081C944.7 1081 975.3 1081 1005.8 1081C1036.3 1081 1066.7 1081 1097.2 1081C1127.7 1081 1158.3 1081 1188.8 1081C1219.3 1081 1249.7 1081 1280 1081C1310.3 1081 1340.7 1081 1371.2 1081C1401.7 1081 1432.3 1081 1462.8 1081C1493.3 1081 1523.7 1081 1554.2 1081C1584.7 1081 1615.3 1081 1645.8 1081C1676.3 1081 1706.7 1081 1737.2 1081C1767.7 1081 1798.3 1081 1828.8 1081C1859.3 1081 1889.7 1081 1904.8 1081L1920 1081L1920 766L1904.8 755.2C1889.7 744.3 1859.3 722.7 1828.8 713.7C1798.3 704.7 1767.7 708.3 1737.2 715.5C1706.7 722.7 1676.3 733.3 1645.8 749.5C1615.3 765.7 1584.7 787.3 1554.2 787.3C1523.7 787.3 1493.3 765.7 1462.8 747.7C1432.3 729.7 1401.7 715.3 1371.2 711.8C1340.7 708.3 1310.3 715.7 1280 717.5C1249.7 719.3 1219.3 715.7 1188.8 724.7C1158.3 733.7 1127.7 755.3 1097.2 755.3C1066.7 755.3 1036.3 733.7 1005.8 740.8C975.3 748 944.7 784 914.2 800.2C883.7 816.3 853.3 812.7 822.8 803.7C792.3 794.7 761.7 780.3 731.2 767.7C700.7 755 670.3 744 640 749.3C609.7 754.7 579.3 776.3 548.8 780C518.3 783.7 487.7 769.3 457.2 771.2C426.7 773 396.3 791 365.8 792.8C335.3 794.7 304.7 780.3 274.2 775C243.7 769.7 213.3 773.3 182.8 760.7C152.3 748 121.7 719 91.2 708.2C60.7 697.3 30.3 704.7 15.2 708.3L0 712Z" fill="#ffffff"></path></svg>