<svg id="visual" viewBox="0 0 1920 1080" width="1920" height="1080" xmlns="http://www.w3.org/2000/svg" xmlns:xlink="http://www.w3.org/1999/xlink" version="1.1"><path d="M0 347L15.2 341.5C30.3 336 60.7 325 91.2 330.3C121.7 335.7 152.3 357.3 182.8 359.2C213.3 361 243.7 343 274.2 339.3C304.7 335.7 335.3 346.3 365.8 339.2C396.3 332 426.7 307 457.2 310.7C487.7 314.3 518.3 346.7 548.8 361C579.3 375.3 609.7 371.7 640 371.7C670.3 371.7 700.7 375.3 731.2 362.8C761.7 350.3 792.3 321.7 822.8 305.5C853.3 289.3 883.7 285.7 914.2 303.7C944.7 321.7 975.3 361.3 1005.8 381.2C1036.3 401 1066.7 401 1097.2 395.5C1127.7 390 1158.3 379 1188.8 373.5C1219.3 368 1249.7 368 1280 353.7C1310.3 339.3 1340.7 310.7 1371.2 308.8C1401.7 307 1432.3 332 1462.8 333.8C1493.3 335.7 1523.7 314.3 1554.2 316.2C1584.7 318 1615.3 343 1645.8 341.2C1676.3 339.3 1706.7 310.7 1737.2 305.3C1767.7 300 1798.3 318 1828.8 332.3C1859.3 346.7 1889.7 357.3 1904.8 362.7L1920 368L1920 0L1904.8 0C1889.7 0 1859.3 0 1828.8 0C1798.3 0 1767.7 0 1737.2 0C1706.7 0 1676.3 0 1645.8 0C1615.3 0 1584.7 0 1554.2 0C1523.7 0 1493.3 0 1462.8 0C1432.3 0 1401.7 0 1371.2 0C1340.7 0 1310.3 0 1280 0C1249.7 0 1219.3 0 1188.8 0C1158.3 0 1127.7 0 1097.2 0C1066.7 0 1036.3 0 1005.8 0C975.3 0 944.7 0 914.2 0C883.7 0 853.3 0 822.8 0C792.3 0 761.7 0 731.2 0C700.7 0 670.3 0 640 0C609.7 0 579.3 0 548.8 0C518.3 0 487.7 0 457.2 0C426.7 0 396.3 0 365.8 0C335.3 0 304.7 0 274.2 0C243.7 0 213.3 0 182.8 0C152.3 0 121.7 0 91.2 0C60.7 0 30.3 0 15.2 0L0 0Z" fill="#0ab5f5"></path><path d="M0 681L15.2 686.5C30.3 692 60.7 703 91.2 712C121.7 721 152.3 728 182.8 728C213.3 728 243.7 721 274.2 710.3C304.7 699.7 335.3 685.3 365.8 674.5C396.3 663.7 426.7 656.3 457.2 661.7C487.7 667 518.3 685 548.8 688.7C579.3 692.3 609.7 681.7 640 687C670.3 692.3 700.7 713.7 731.2 713.7C761.7 713.7 792.3 692.3 822.8 679.8C853.3 667.3 883.7 663.7 914.2 667.2C944.7 670.7 975.3 681.3 1005.8 693.8C1036.3 706.3 1066.7 720.7 1097.2 722.5C1127.7 724.3 1158.3 713.7 1188.8 697.5C1219.3 681.3 1249.7 659.7 1280 654.3C1310.3 649 1340.7 660 1371.2 669C1401.7 678 1432.3 685 1462.8 690.3C1493.3 695.7 1523.7 699.3 1554.2 699.3C1584.7 699.3 1615.3 695.7 1645.8 695.7C1676.3 695.7 1706.7 699.3 1737.2 697.5C1767.7 695.7 1798.3 688.3 1828.8 693.7C1859.3 699 1889.7 717 1904.8 726L1920 735L1920 366L1904.8 360.7C1889.7 355.3 1859.3 344.7 1828.8 330.3C1798.3 316 1767.7 298 1737.2 303.3C1706.7 308.7 1676.3 337.3 1645.8 339.2C1615.3 341 1584.7 316 1554.2 314.2C1523.7 312.3 1493.3 333.7 1462.8 331.8C1432.3 330 1401.7 305 1371.2 306.8C1340.7 308.7 1310.3 337.3 1280 351.7C1249.7 366 1219.3 366 1188.8 371.5C1158.3 377 1127.7 388 1097.2 393.5C1066.7 399 1036.3 399 1005.8 379.2C975.3 359.3 944.7 319.7 914.2 301.7C883.7 283.7 853.3 287.3 822.8 303.5C792.3 319.7 761.7 348.3 731.2 360.8C700.7 373.3 670.3 369.7 640 369.7C609.7 369.7 579.3 373.3 548.8 359C518.3 344.7 487.7 312.3 457.2 308.7C426.7 305 396.3 330 365.8 337.2C335.3 344.3 304.7 333.7 274.2 337.3C243.7 341 213.3 359 182.8 357.2C152.3 355.3 121.7 333.7 91.2 328.3C60.7 323 30.3 334 15.2 339.5L0 345Z" fill="#89cdf9"></path><path d="M0 887L15.2 896C30.3 905 60.7 923 91.2 926.5C121.7 930 152.3 919 182.8 911.7C213.3 904.3 243.7 900.7 274.2 904.3C304.7 908 335.3 919 365.8 919C396.3 919 426.7 908 457.2 908C487.7 908 518.3 919 548.8 920.8C579.3 922.7 609.7 915.3 640 911.7C670.3 908 700.7 908 731.2 909.8C761.7 911.7 792.3 915.3 822.8 910C853.3 904.7 883.7 890.3 914.2 886.7C944.7 883 975.3 890 1005.8 895.3C1036.3 900.7 1066.7 904.3 1097.2 900.8C1127.7 897.3 1158.3 886.7 1188.8 881.3C1219.3 876 1249.7 876 1280 876C1310.3 876 1340.7 876 1371.2 886.8C1401.7 897.7 1432.3 919.3 1462.8 930.2C1493.3 941 1523.7 941 1554.2 939.2C1584.7 937.3 1615.3 933.7 1645.8 926.3C1676.3 919 1706.7 908 1737.2 902.5C1767.7 897 1798.3 897 1828.8 900.7C1859.3 904.3 1889.7 911.7 1904.8 915.3L1920 919L1920 733L1904.8 724C1889.7 715 1859.3 697 1828.8 691.7C1798.3 686.3 1767.7 693.7 1737.2 695.5C1706.7 697.3 1676.3 693.7 1645.8 693.7C1615.3 693.7 1584.7 697.3 1554.2 697.3C1523.7 697.3 1493.3 693.7 1462.8 688.3C1432.3 683 1401.7 676 1371.2 667C1340.7 658 1310.3 647 1280 652.3C1249.7 657.7 1219.3 679.3 1188.8 695.5C1158.3 711.7 1127.7 722.3 1097.2 720.5C1066.7 718.7 1036.3 704.3 1005.8 691.8C975.3 679.3 944.7 668.7 914.2 665.2C883.7 661.7 853.3 665.3 822.8 677.8C792.3 690.3 761.7 711.7 731.2 711.7C700.7 711.7 670.3 690.3 640 685C609.7 679.7 579.3 690.3 548.8 686.7C518.3 683 487.7 665 457.2 659.7C426.7 654.3 396.3 661.7 365.8 672.5C335.3 683.3 304.7 697.7 274.2 708.3C243.7 719 213.3 726 182.8 726C152.3 726 121.7 719 91.2 710C60.7 701 30.3 690 15.2 684.5L0 679Z" fill="#c8e6fc"></path><path d="M0 1081L15.2 1081C30.3 1081 60.7 1081 91.2 1081C121.7 1081 152.3 1081 182.8 1081C213.3 1081 243.7 1081 274.2 1081C304.7 1081 335.3 1081 365.8 1081C396.3 1081 426.7 1081 457.2 1081C487.7 1081 518.3 1081 548.8 1081C579.3 1081 609.7 1081 640 1081C670.3 1081 700.7 1081 731.2 1081C761.7 1081 792.3 1081 822.8 1081C853.3 1081 883.7 1081 914.2 1081C944.7 1081 975.3 1081 1005.8 1081C1036.3 1081 1066.7 1081 1097.2 1081C1127.7 1081 1158.3 1081 1188.8 1081C1219.3 1081 1249.7 1081 1280 1081C1310.3 1081 1340.7 1081 1371.2 1081C1401.7 1081 1432.3 1081 1462.8 1081C1493.3 1081 1523.7 1081 1554.2 1081C1584.7 1081 1615.3 1081 1645.8 1081C1676.3 1081 1706.7 1081 1737.2 1081C1767.7 1081 1798.3 1081 1828.8 1081C1859.3 1081 1889.7 1081 1904.8 1081L1920 1081L1920 917L1904.8 913.3C1889.7 909.7 1859.3 902.3 1828.8 898.7C1798.3 895 1767.7 895 1737.2 900.5C1706.7 906 1676.3 917 1645.8 924.3C1615.3 931.7 1584.7 935.3 1554.2 937.2C1523.7 939 1493.3 939 1462.8 928.2C1432.3 917.3 1401.7 895.7 1371.2 884.8C1340.7 874 1310.3 874 1280 874C1249.7 874 1219.3 874 1188.8 879.3C1158.3 884.7 1127.7 895.3 1097.2 898.8C1066.7 902.3 1036.3 898.7 1005.8 893.3C975.3 888 944.7 881 914.2 884.7C883.7 888.3 853.3 902.7 822.8 908C792.3 913.3 761.7 909.7 731.2 907.8C700.7 906 670.3 906 640 909.7C609.7 913.3 579.3 920.7 548.8 918.8C518.3 917 487.7 906 457.2 906C426.7 906 396.3 917 365.8 917C335.3 917 304.7 906 274.2 902.3C243.7 898.7 213.3 902.3 182.8 909.7C152.3 917 121.7 928 91.2 924.5C60.7 921 30.3 903 15.2 894L0 885Z" fill="#ffffff"></path></svg>